<svg xmlns="http://www.w3.org/2000/svg" viewBox="0 0 32 32" id="phone"><defs><linearGradient id="a" x1="8.02" x2="20.989" y1="25.764" y2="3.301" gradientUnits="userSpaceOnUse"><stop offset="0" stop-color="#3cacb6"></stop><stop offset="1" stop-color="#8ccead"></stop></linearGradient></defs><path fill="url(#a)" d="M19.964,21.521c-.417-.685-1.075-1.167-1.854-1.356-.779-.189-1.584-.064-2.269,.352l-1.287,.784c-.393,.239-.888,.188-1.205-.124-1.025-1.011-1.924-2.145-2.671-3.372-.748-1.229-1.343-2.55-1.769-3.927-.128-.414,.06-.885,.446-1.121l1.287-.783c1.413-.86,1.863-2.709,1.002-4.122l-1.559-2.562c-.417-.685-1.075-1.167-1.854-1.356-.78-.19-1.585-.064-2.269,.353l-2.483,1.511c-.903,.549-1.442,1.502-1.442,2.55,0,3.104,.612,7.805,3.516,12.576,1.31,2.153,4.287,6.17,9.506,8.876,.453,.235,.941,.352,1.424,.352,.54,0,1.075-.146,1.552-.436l2.484-1.512c.685-.417,1.166-1.075,1.355-1.853,.189-.779,.064-1.584-.353-2.269l-1.559-2.562Zm-.032,4.358c-.063,.26-.224,.479-.452,.618l-2.484,1.512c-.302,.186-.682,.19-1.016,.017-4.787-2.482-7.517-6.166-8.718-8.141-2.663-4.375-3.223-8.689-3.224-11.537,0-.343,.18-.658,.481-.841l2.484-1.512c.159-.096,.337-.146,.518-.146,.08,0,.159,.01,.238,.029,.26,.063,.479,.224,.618,.452l1.56,2.562c.287,.471,.137,1.087-.334,1.374l-1.287,.783c-1.177,.716-1.718,2.123-1.317,3.42,.475,1.534,1.138,3.006,1.972,4.376,.832,1.367,1.833,2.63,2.976,3.756,.97,.957,2.47,1.123,3.648,.407l1.287-.784c.229-.139,.496-.18,.756-.117s.479,.224,.618,.452l1.56,2.562c.139,.228,.18,.497,.117,.756Zm-5.16-14.956c.084-.546,.596-.918,1.141-.836,1.584,.244,2.978,1.091,3.925,2.384,.947,1.293,1.334,2.877,1.089,4.461-.076,.494-.502,.847-.987,.847-.051,0-.103-.004-.154-.012-.545-.084-.92-.595-.835-1.141,.163-1.056-.095-2.112-.727-2.974-.631-.862-1.561-1.426-2.616-1.589-.546-.084-.92-.595-.836-1.141Zm8.292-.816c1.579,2.155,2.224,4.795,1.816,7.435-.076,.494-.502,.848-.987,.848-.051,0-.102-.004-.154-.012-.546-.084-.92-.595-.836-1.141,.326-2.112-.19-4.224-1.453-5.948-1.263-1.724-3.122-2.853-5.233-3.178-.546-.084-.92-.595-.836-1.141,.084-.546,.593-.92,1.141-.836,2.64,.407,4.963,1.818,6.542,3.973Zm5.77,8.045c-.076,.494-.502,.848-.987,.848-.051,0-.103-.004-.154-.012-.546-.084-.92-.595-.836-1.141,.489-3.168-.285-6.336-2.179-8.922-1.895-2.585-4.683-4.279-7.85-4.768-.546-.084-.92-.595-.836-1.141s.596-.918,1.141-.836c3.696,.57,6.948,2.545,9.159,5.562,2.21,3.017,3.113,6.713,2.542,10.409Z"></path></svg>